<mxfile host="app.diagrams.net" modified="2024-06-09T22:22:05.288Z" agent="Mozilla/5.0 (Windows NT 10.0; Win64; x64) AppleWebKit/537.36 (KHTML, like Gecko) Chrome/125.0.0.0 Safari/537.36" etag="6tfm90ZkiSn-wAZXAmNM" version="24.4.13" type="github">
  <diagram id="C5RBs43oDa-KdzZeNtuy" name="Page-1">
    <mxGraphModel dx="1434" dy="746" grid="1" gridSize="10" guides="1" tooltips="1" connect="1" arrows="1" fold="1" page="1" pageScale="1" pageWidth="827" pageHeight="1169" math="0" shadow="0">
      <root>
        <mxCell id="WIyWlLk6GJQsqaUBKTNV-0" />
        <mxCell id="WIyWlLk6GJQsqaUBKTNV-1" parent="WIyWlLk6GJQsqaUBKTNV-0" />
        <mxCell id="sw7qi4uJYClMo5-Vz4V5-4" style="edgeStyle=orthogonalEdgeStyle;rounded=0;orthogonalLoop=1;jettySize=auto;html=1;entryX=0.5;entryY=0;entryDx=0;entryDy=0;" edge="1" parent="WIyWlLk6GJQsqaUBKTNV-1" source="sw7qi4uJYClMo5-Vz4V5-1" target="sw7qi4uJYClMo5-Vz4V5-2">
          <mxGeometry relative="1" as="geometry" />
        </mxCell>
        <mxCell id="sw7qi4uJYClMo5-Vz4V5-1" value="Start" style="strokeWidth=2;html=1;shape=mxgraph.flowchart.terminator;whiteSpace=wrap;" vertex="1" parent="WIyWlLk6GJQsqaUBKTNV-1">
          <mxGeometry x="364" y="40" width="100" height="60" as="geometry" />
        </mxCell>
        <mxCell id="sw7qi4uJYClMo5-Vz4V5-6" style="edgeStyle=orthogonalEdgeStyle;rounded=0;orthogonalLoop=1;jettySize=auto;html=1;entryX=0.5;entryY=0;entryDx=0;entryDy=0;" edge="1" parent="WIyWlLk6GJQsqaUBKTNV-1" source="sw7qi4uJYClMo5-Vz4V5-2" target="sw7qi4uJYClMo5-Vz4V5-5">
          <mxGeometry relative="1" as="geometry" />
        </mxCell>
        <mxCell id="sw7qi4uJYClMo5-Vz4V5-2" value="Input Housing Expense" style="shape=parallelogram;perimeter=parallelogramPerimeter;whiteSpace=wrap;html=1;fixedSize=1;" vertex="1" parent="WIyWlLk6GJQsqaUBKTNV-1">
          <mxGeometry x="354" y="130" width="120" height="60" as="geometry" />
        </mxCell>
        <mxCell id="sw7qi4uJYClMo5-Vz4V5-8" style="edgeStyle=orthogonalEdgeStyle;rounded=0;orthogonalLoop=1;jettySize=auto;html=1;entryX=0.5;entryY=0;entryDx=0;entryDy=0;" edge="1" parent="WIyWlLk6GJQsqaUBKTNV-1" source="sw7qi4uJYClMo5-Vz4V5-5" target="sw7qi4uJYClMo5-Vz4V5-7">
          <mxGeometry relative="1" as="geometry" />
        </mxCell>
        <mxCell id="sw7qi4uJYClMo5-Vz4V5-5" value="Input Insurance Expense" style="shape=parallelogram;perimeter=parallelogramPerimeter;whiteSpace=wrap;html=1;fixedSize=1;" vertex="1" parent="WIyWlLk6GJQsqaUBKTNV-1">
          <mxGeometry x="354" y="210" width="120" height="60" as="geometry" />
        </mxCell>
        <mxCell id="sw7qi4uJYClMo5-Vz4V5-10" style="edgeStyle=orthogonalEdgeStyle;rounded=0;orthogonalLoop=1;jettySize=auto;html=1;" edge="1" parent="WIyWlLk6GJQsqaUBKTNV-1" source="sw7qi4uJYClMo5-Vz4V5-7" target="sw7qi4uJYClMo5-Vz4V5-9">
          <mxGeometry relative="1" as="geometry" />
        </mxCell>
        <mxCell id="sw7qi4uJYClMo5-Vz4V5-7" value="Input Gas/Transportation Expense" style="shape=parallelogram;perimeter=parallelogramPerimeter;whiteSpace=wrap;html=1;fixedSize=1;" vertex="1" parent="WIyWlLk6GJQsqaUBKTNV-1">
          <mxGeometry x="320" y="290" width="180" height="80" as="geometry" />
        </mxCell>
        <mxCell id="sw7qi4uJYClMo5-Vz4V5-12" style="edgeStyle=orthogonalEdgeStyle;rounded=0;orthogonalLoop=1;jettySize=auto;html=1;entryX=0.5;entryY=0;entryDx=0;entryDy=0;" edge="1" parent="WIyWlLk6GJQsqaUBKTNV-1" source="sw7qi4uJYClMo5-Vz4V5-9" target="sw7qi4uJYClMo5-Vz4V5-11">
          <mxGeometry relative="1" as="geometry" />
        </mxCell>
        <mxCell id="sw7qi4uJYClMo5-Vz4V5-9" value="Input Electricity Expense" style="shape=parallelogram;perimeter=parallelogramPerimeter;whiteSpace=wrap;html=1;fixedSize=1;" vertex="1" parent="WIyWlLk6GJQsqaUBKTNV-1">
          <mxGeometry x="354" y="390" width="120" height="60" as="geometry" />
        </mxCell>
        <mxCell id="sw7qi4uJYClMo5-Vz4V5-14" style="edgeStyle=orthogonalEdgeStyle;rounded=0;orthogonalLoop=1;jettySize=auto;html=1;" edge="1" parent="WIyWlLk6GJQsqaUBKTNV-1" source="sw7qi4uJYClMo5-Vz4V5-11" target="sw7qi4uJYClMo5-Vz4V5-13">
          <mxGeometry relative="1" as="geometry" />
        </mxCell>
        <mxCell id="sw7qi4uJYClMo5-Vz4V5-11" value="Input Water Expense" style="shape=parallelogram;perimeter=parallelogramPerimeter;whiteSpace=wrap;html=1;fixedSize=1;" vertex="1" parent="WIyWlLk6GJQsqaUBKTNV-1">
          <mxGeometry x="330" y="480" width="144" height="60" as="geometry" />
        </mxCell>
        <mxCell id="sw7qi4uJYClMo5-Vz4V5-13" value="Input Groceries Expense" style="shape=parallelogram;perimeter=parallelogramPerimeter;whiteSpace=wrap;html=1;fixedSize=1;" vertex="1" parent="WIyWlLk6GJQsqaUBKTNV-1">
          <mxGeometry x="354" y="560" width="120" height="60" as="geometry" />
        </mxCell>
        <mxCell id="sw7qi4uJYClMo5-Vz4V5-16" style="edgeStyle=orthogonalEdgeStyle;rounded=0;orthogonalLoop=1;jettySize=auto;html=1;" edge="1" parent="WIyWlLk6GJQsqaUBKTNV-1" source="sw7qi4uJYClMo5-Vz4V5-15">
          <mxGeometry relative="1" as="geometry">
            <mxPoint x="240" y="685" as="targetPoint" />
          </mxGeometry>
        </mxCell>
        <mxCell id="sw7qi4uJYClMo5-Vz4V5-17" style="edgeStyle=orthogonalEdgeStyle;rounded=0;orthogonalLoop=1;jettySize=auto;html=1;entryX=0.5;entryY=0;entryDx=0;entryDy=0;" edge="1" parent="WIyWlLk6GJQsqaUBKTNV-1" source="sw7qi4uJYClMo5-Vz4V5-15" target="sw7qi4uJYClMo5-Vz4V5-20">
          <mxGeometry relative="1" as="geometry">
            <mxPoint x="600" y="685" as="targetPoint" />
          </mxGeometry>
        </mxCell>
        <mxCell id="sw7qi4uJYClMo5-Vz4V5-15" value="Check for Additional Expenses" style="rhombus;whiteSpace=wrap;html=1;" vertex="1" parent="WIyWlLk6GJQsqaUBKTNV-1">
          <mxGeometry x="360" y="630" width="110" height="110" as="geometry" />
        </mxCell>
        <mxCell id="sw7qi4uJYClMo5-Vz4V5-18" value="Yes" style="text;html=1;align=center;verticalAlign=middle;resizable=0;points=[];autosize=1;strokeColor=none;fillColor=none;" vertex="1" parent="WIyWlLk6GJQsqaUBKTNV-1">
          <mxGeometry x="500" y="660" width="40" height="30" as="geometry" />
        </mxCell>
        <mxCell id="sw7qi4uJYClMo5-Vz4V5-19" value="No" style="text;html=1;align=center;verticalAlign=middle;resizable=0;points=[];autosize=1;strokeColor=none;fillColor=none;" vertex="1" parent="WIyWlLk6GJQsqaUBKTNV-1">
          <mxGeometry x="280" y="660" width="40" height="30" as="geometry" />
        </mxCell>
        <mxCell id="sw7qi4uJYClMo5-Vz4V5-22" style="edgeStyle=orthogonalEdgeStyle;rounded=0;orthogonalLoop=1;jettySize=auto;html=1;" edge="1" parent="WIyWlLk6GJQsqaUBKTNV-1" source="sw7qi4uJYClMo5-Vz4V5-20" target="sw7qi4uJYClMo5-Vz4V5-21">
          <mxGeometry relative="1" as="geometry" />
        </mxCell>
        <mxCell id="sw7qi4uJYClMo5-Vz4V5-20" value="Input Additional Expenses" style="shape=parallelogram;perimeter=parallelogramPerimeter;whiteSpace=wrap;html=1;fixedSize=1;" vertex="1" parent="WIyWlLk6GJQsqaUBKTNV-1">
          <mxGeometry x="540" y="710" width="120" height="60" as="geometry" />
        </mxCell>
        <mxCell id="sw7qi4uJYClMo5-Vz4V5-21" value="Calculate Total Expenses" style="rounded=0;whiteSpace=wrap;html=1;" vertex="1" parent="WIyWlLk6GJQsqaUBKTNV-1">
          <mxGeometry x="540" y="790" width="120" height="60" as="geometry" />
        </mxCell>
      </root>
    </mxGraphModel>
  </diagram>
</mxfile>
